# xmcd
#
# Track frame offsets: 
#        222
#        19787
#        32692
#        62207
#        79417
#        106520
#        121037
#        150605
#        164100
#        174785
#        196057
#
# Disc length: 2828 seconds
#
# Revision: 2
# Processed by: cddbd v1.5.1PL2 Copyright (c) Steve Scherf et al.
# Submitted via: ExactAudioCopy v0.95b3
#
DISCID=7e0b0a0b
DTITLE=Holmes Brothers - In The Spirit
DYEAR=1990
DGENRE=Blues
TTITLE0=Please Don't Hurt Me
TTITLE1=The Final Round
TTITLE2=When Something Is Wrong With My Baby
TTITLE3=Hey, Hey, I Love You
TTITLE4=None But The Righteous
TTITLE5=Squeal Like An Eel
TTITLE6=Going Down Slow
TTITLE7=Ask Me No Questions
TTITLE8=So Fine
TTITLE9=Baby, What You Want Me To Do
TTITLE10=Up Above My Head
EXTD=
EXTT0=
EXTT1=
EXTT2=
EXTT3=
EXTT4=
EXTT5=
EXTT6=
EXTT7=
EXTT8=
EXTT9=
EXTT10=
PLAYORDER=
